<svg xmlns="http://www.w3.org/2000/svg" viewBox="0 0 1200 900" role="img" aria-label="Hand-folded dumplings">
  <rect width="1200" height="900" fill="#fff2dc"/>
  <circle cx="220" cy="160" r="180" fill="#f4bd45" opacity=".35"/>
  <circle cx="1030" cy="760" r="240" fill="#a30f17" opacity=".12"/>
  <ellipse cx="600" cy="565" rx="430" ry="210" fill="#f8e9cf"/>
  <g fill="#fff8ea" stroke="#ba6d45" stroke-width="7">
    <path d="M275 440c66-112 201-127 285-25 26 32 40 69 45 109-93 74-239 70-330-84z"/>
    <path d="M505 350c96-94 231-67 290 50 18 36 23 74 17 110-112 41-250-4-307-160z"/>
    <path d="M700 465c103-75 235-36 278 83 14 39 12 77 0 113-118 18-240-47-278-196z"/>
    <path d="M430 590c88-70 206-52 263 39 22 36 29 75 23 113-105 29-224-22-286-152z"/>
  </g>
  <g fill="none" stroke="#ba6d45" stroke-width="5" opacity=".65">
    <path d="M350 405c49 59 118 90 206 93"/>
    <path d="M584 334c50 74 119 114 208 120"/>
    <path d="M782 462c39 72 102 120 187 144"/>
    <path d="M505 586c43 58 104 93 183 102"/>
  </g>
</svg>
