<svg xmlns="http://www.w3.org/2000/svg" viewBox="0 0 1600 1000" role="img" aria-label="Steaming dumplings on a warm red table">
  <defs>
    <linearGradient id="bg" x1="0" x2="1" y1="0" y2="1">
      <stop offset="0" stop-color="#3b0808"/>
      <stop offset="0.52" stop-color="#8c1d18"/>
      <stop offset="1" stop-color="#f0a33a"/>
    </linearGradient>
    <radialGradient id="plate" cx="50%" cy="45%" r="55%">
      <stop offset="0" stop-color="#fff9ed"/>
      <stop offset="1" stop-color="#e9d7bd"/>
    </radialGradient>
    <filter id="shadow" x="-20%" y="-20%" width="140%" height="140%">
      <feDropShadow dx="0" dy="30" stdDeviation="24" flood-color="#260202" flood-opacity=".35"/>
    </filter>
  </defs>
  <rect width="1600" height="1000" fill="url(#bg)"/>
  <circle cx="1180" cy="212" r="360" fill="#fff1d5" opacity=".12"/>
  <circle cx="320" cy="805" r="260" fill="#ffd36a" opacity=".11"/>
  <ellipse cx="920" cy="610" rx="560" ry="250" fill="url(#plate)" filter="url(#shadow)"/>
  <g fill="#f8ead2" stroke="#c98b62" stroke-width="8" filter="url(#shadow)">
    <path d="M560 520c50-100 178-144 284-76 44 28 75 72 91 123-95 78-252 91-375-47z"/>
    <path d="M790 430c78-96 215-99 300-8 37 40 54 89 51 139-110 45-263 14-351-131z"/>
    <path d="M1010 530c92-80 226-57 287 51 27 48 31 100 16 148-119 18-259-52-303-199z"/>
    <path d="M685 655c88-72 215-51 274 46 27 45 34 94 24 140-112 25-248-35-298-186z"/>
  </g>
  <g fill="none" stroke="#c98b62" stroke-width="5" opacity=".7">
    <path d="M650 482c35 41 87 67 155 75"/>
    <path d="M875 408c48 62 116 93 203 92"/>
    <path d="M1088 527c44 73 111 118 200 133"/>
    <path d="M775 652c45 65 108 102 189 111"/>
  </g>
  <g stroke="#fff8ea" stroke-linecap="round" opacity=".35">
    <path d="M620 295c-34-71 50-89 14-166" stroke-width="18"/>
    <path d="M888 305c-32-88 72-114 28-207" stroke-width="15"/>
    <path d="M1144 390c-38-71 48-100 11-181" stroke-width="16"/>
  </g>
</svg>
