<svg xmlns="http://www.w3.org/2000/svg" viewBox="0 0 1200 900" role="img" aria-label="Pan-fried dumplings with steam">
  <defs>
    <linearGradient id="pan" x1="0" x2="1">
      <stop offset="0" stop-color="#17100d"/>
      <stop offset="1" stop-color="#5c1a12"/>
    </linearGradient>
  </defs>
  <rect width="1200" height="900" fill="#fff8ea"/>
  <circle cx="950" cy="185" r="250" fill="#f4bd45" opacity=".32"/>
  <ellipse cx="620" cy="620" rx="460" ry="170" fill="url(#pan)"/>
  <ellipse cx="610" cy="585" rx="390" ry="125" fill="#7f1714"/>
  <g fill="#f4d8b2" stroke="#ad623c" stroke-width="7">
    <path d="M365 470c61-94 173-102 243-16 24 29 35 63 38 99-82 58-200 49-281-83z"/>
    <path d="M565 420c79-77 188-55 236 40 17 34 20 68 13 101-92 31-199-8-249-141z"/>
    <path d="M740 485c88-64 196-32 233 68 12 33 10 66 0 96-97 16-199-38-233-164z"/>
  </g>
  <g stroke="#8f1d18" stroke-linecap="round" opacity=".35">
    <path d="M420 250c-34-84 57-113 18-210" stroke-width="18"/>
    <path d="M610 260c-31-72 54-98 16-180" stroke-width="16"/>
    <path d="M800 295c-40-77 42-104 8-190" stroke-width="14"/>
  </g>
</svg>
