<svg xmlns="http://www.w3.org/2000/svg" viewBox="0 0 64 64">
  <circle cx="32" cy="32" r="30" fill="#7a0f12"/>
  <circle cx="32" cy="32" r="30" fill="none" stroke="#e9b949" stroke-width="2" stroke-dasharray="3 3" opacity="0.8"/>
  <path d="M14 38c0-9 8-15 18-15s18 6 18 15c0 2-2 3-4 2-1.5-3-3-3-4.5 0-1 2-3 2-4 0-1.4-3-3-3-4.4 0-1 2-3 2-4 0-1.4-3-3-3-4.4 0-1 2-3 2-4 0C16 41 14 40 14 38Z" fill="#fcefd8"/>
  <path d="M16 38c2 4 8 6 16 6s14-2 16-6" fill="none" stroke="#7a0f12" stroke-width="1.8" stroke-linecap="round" opacity="0.5"/>
</svg>
